<svg width="280" height="240" viewBox="0 0 280 240" fill="none" xmlns="http://www.w3.org/2000/svg">
<g clip-path="url(#clip0_344_1415)">
<path d="M156.361 24.2924H154.712V110.078H156.361V24.2924Z" fill="#58595B"/>
<path d="M124.448 25.2566C115.179 23.2348 103.701 32.4728 93.4681 32.6283C83.2349 32.4728 71.7574 23.2348 62.4884 25.2566C46.3142 28.8025 40.9642 47.9316 42.2084 61.1509C44.759 88.5848 61.2131 103.733 74.9922 108.212C80.5599 110.389 86.6252 111.602 92.9705 111.602C106.501 111.602 119.533 105.972 128.834 96.1742C135.677 90.3888 139.067 84.6034 138.942 79.0047C138.849 75.4588 137.356 72.7838 135.988 71.042C140.778 68.6781 144.075 65.4743 144.728 61.1197C146.656 47.9938 140.622 28.7714 124.448 25.2255V25.2566ZM135.708 79.098C135.801 83.1415 133.437 87.4961 128.647 92.0062C125.63 94.4012 121.462 96.5785 116.05 96.8896C91.9751 98.2271 82.4572 77.0762 82.4572 77.0762C82.4572 77.0762 114.743 79.2846 132.877 72.4106C133.997 73.5925 135.614 75.8942 135.708 79.098Z" fill="#EC1C24"/>
<path d="M91.1042 10.4511C91.1042 10.4511 76.1742 -6.18967 49.2068 4.32355C22.1773 14.8368 4.29238 15.801 0 12.6595C16.7963 26.3453 35.6454 34.3702 52.5661 26.3453C69.4868 18.3515 75.9565 7.27845 91.1042 10.4511Z" fill="#009345"/>
<path d="M36.9829 17.1073C47.9316 14.4946 57.7294 9.48682 69.8911 7.49615C79.9378 5.84763 85.6921 7.06069 90.8243 10.3888C75.8942 7.43394 69.3624 18.3826 52.5661 26.3453C35.6454 34.3391 16.8274 26.3453 0 12.6594C0.186625 12.7839 0.37325 12.9083 0.59098 13.0327C11.1353 19.2846 26.2519 19.7201 36.9829 17.1385V17.1073Z" fill="#046938"/>
<path d="M92.4417 29.8289C91.7263 29.8289 91.0109 29.5801 90.4821 29.0824C89.8911 28.5537 89.5179 27.8383 89.4868 27.0296C89.0824 20.2488 91.3219 13.6859 95.8631 8.58477C100.373 3.45258 106.594 0.435468 113.375 9.48552e-06C114.152 -0.0621989 114.93 0.217739 115.521 0.74651C116.112 1.27528 116.454 1.99068 116.516 2.79939C116.61 4.41681 115.365 5.8476 113.748 5.94091C108.523 6.25195 103.764 8.58477 100.28 12.5039C96.8274 16.423 95.0855 21.4619 95.3966 26.6563C95.4588 27.465 95.1789 28.2426 94.6501 28.8336C94.1213 29.4246 93.4059 29.7667 92.5972 29.8289C92.535 29.8289 92.4728 29.8289 92.4106 29.8289H92.4417Z" fill="#046938"/>
<path d="M170.296 87.9938H165.941V71.5708H175.645V75.1167H170.327V78.2582H175.241V81.8041H170.327V87.9627L170.296 87.9938Z" fill="#EC1C24"/>
<path d="M193.344 79.7822C193.344 82.5505 192.659 84.6345 191.322 86.0653C189.984 87.4961 187.994 88.2115 185.381 88.2115C182.768 88.2115 180.84 87.4961 179.471 86.0342C178.103 84.6034 177.418 82.4883 177.418 79.72C177.418 76.9829 178.103 74.8989 179.471 73.4681C180.84 72.0373 182.83 71.3219 185.412 71.3219C187.994 71.3219 190.016 72.0373 191.353 73.4681C192.691 74.8989 193.375 76.9829 193.375 79.7511L193.344 79.7822ZM182.053 79.7822C182.053 82.9549 183.142 84.5412 185.35 84.5412C186.47 84.5412 187.309 84.1679 187.838 83.3903C188.367 82.6127 188.647 81.4308 188.647 79.7822C188.647 78.1337 188.367 76.9207 187.807 76.143C187.247 75.3654 186.439 74.9611 185.35 74.9611C183.142 74.9611 182.022 76.5474 182.022 79.7511L182.053 79.7822Z" fill="#EC1C24"/>
<path d="M211.322 79.7822C211.322 82.5505 210.638 84.6345 209.3 86.0653C207.963 87.4961 205.972 88.2115 203.359 88.2115C200.747 88.2115 198.818 87.4961 197.449 86.0342C196.081 84.6034 195.397 82.4883 195.397 79.72C195.397 76.9829 196.081 74.8989 197.449 73.4681C198.818 72.0373 200.809 71.3219 203.39 71.3219C205.972 71.3219 207.994 72.0373 209.331 73.4681C210.669 74.8989 211.353 76.9829 211.353 79.7511L211.322 79.7822ZM200.031 79.7822C200.031 82.9549 201.12 84.5412 203.328 84.5412C204.448 84.5412 205.288 84.1679 205.817 83.3903C206.345 82.6127 206.625 81.4308 206.625 79.7822C206.625 78.1337 206.345 76.9207 205.785 76.143C205.226 75.3654 204.417 74.9611 203.328 74.9611C201.12 74.9611 200 76.5474 200 79.7511L200.031 79.7822Z" fill="#EC1C24"/>
<path d="M227.869 79.4402C227.869 82.1773 227.123 84.2924 225.599 85.7854C224.075 87.2784 221.96 87.9938 219.253 87.9938H213.935V71.5708H219.627C222.271 71.5708 224.292 72.2551 225.723 73.5926C227.154 74.9301 227.869 76.8896 227.869 79.4402ZM223.266 79.5957C223.266 78.1027 222.955 76.9829 222.364 76.2364C221.773 75.521 220.871 75.1478 219.658 75.1478H218.383V84.3546H219.378C220.715 84.3546 221.711 83.9503 222.333 83.1727C222.955 82.3951 223.266 81.182 223.266 79.5957Z" fill="#EC1C24"/>
<path d="M247.123 87.9938L246.003 86.8429C245.319 87.2784 244.79 87.5583 244.355 87.7138C243.919 87.8693 243.453 87.9937 242.893 88.0871C242.364 88.1804 241.742 88.2115 241.058 88.2115C239.876 88.2115 238.818 87.9937 237.916 87.6205C237.014 87.2472 236.299 86.6563 235.832 85.9098C235.334 85.1944 235.117 84.3546 235.117 83.4214C235.117 81.4619 236.143 79.9689 238.165 78.9113C237.698 78.3826 237.325 77.8227 237.076 77.2317C236.827 76.6407 236.703 75.9875 236.703 75.241C236.703 74.0591 237.17 73.0948 238.103 72.3794C239.036 71.664 240.311 71.3219 241.928 71.3219C243.546 71.3219 244.728 71.664 245.63 72.3794C246.532 73.0948 246.936 74.028 246.936 75.241C246.936 76.0808 246.687 76.8273 246.221 77.5427C245.754 78.2581 245.008 78.9113 243.981 79.5334L246.221 81.6485C246.781 80.7776 247.185 79.8133 247.403 78.7247H251.975C251.757 79.7511 251.384 80.7776 250.918 81.8351C250.42 82.8616 249.891 83.7636 249.269 84.5101L252.846 87.9626H247.154L247.123 87.9938ZM239.658 83.1415C239.658 83.6081 239.813 84.0124 240.155 84.2923C240.498 84.5723 240.933 84.7278 241.493 84.7278C241.928 84.7278 242.302 84.6656 242.613 84.5723C242.924 84.4479 243.173 84.3235 243.359 84.199L240.591 81.3686C239.969 81.8351 239.658 82.4261 239.658 83.1415ZM242.955 75.2721C242.955 74.8989 242.862 74.65 242.644 74.4945C242.426 74.339 242.177 74.2457 241.835 74.2457C241.493 74.2457 241.244 74.339 240.995 74.5256C240.746 74.7123 240.653 75.0233 240.653 75.4277C240.653 75.9875 240.995 76.5785 241.649 77.1695C242.084 76.9207 242.395 76.6407 242.613 76.2986C242.83 75.9564 242.955 75.6143 242.955 75.2721Z" fill="#EC1C24"/>
<path d="M165.941 93.3749H171.664C173.904 93.3749 175.552 93.717 176.641 94.3702C177.729 95.0234 178.258 96.0498 178.258 97.4495C178.258 98.8492 178.009 99.1602 177.543 99.8134C177.076 100.467 176.454 100.871 175.677 101.058V101.182C176.703 101.462 177.418 101.897 177.885 102.519C178.351 103.142 178.569 103.95 178.569 104.977C178.569 106.47 178.009 107.652 176.89 108.491C175.77 109.362 174.246 109.767 172.317 109.767H165.941V93.3438V93.3749ZM170.358 99.6579H171.695C172.317 99.6579 172.815 99.5335 173.157 99.2535C173.499 99.0047 173.686 98.6004 173.686 98.0716C173.686 97.1385 173.002 96.703 171.602 96.703H170.358V99.6579ZM170.358 102.893V106.345H171.913C173.282 106.345 173.997 105.754 173.997 104.603C173.997 103.453 173.81 103.639 173.437 103.359C173.064 103.079 172.535 102.924 171.82 102.924H170.358V102.893Z" fill="#EC1C24"/>
<path d="M190.824 109.767H181.089V93.3438H190.824V96.8896H185.505V99.4713H190.42V103.017H185.505V106.128H190.824V109.736V109.767Z" fill="#EC1C24"/>
<path d="M202.582 93.3749H207.558L202.177 109.798H196.952L191.602 93.3749H196.579L198.818 101.68C199.285 103.515 199.533 104.821 199.596 105.537C199.658 105.008 199.751 104.355 199.907 103.577C200.062 102.799 200.218 102.177 200.311 101.711L202.582 93.3438V93.3749Z" fill="#EC1C24"/>
<path d="M218.694 109.767H208.958V93.3438H218.694V96.8896H213.375V99.4713H218.289V103.017H213.375V106.128H218.694V109.736V109.767Z" fill="#EC1C24"/>
<path d="M225.661 103.795V109.767H221.213V93.3438H226.594C231.042 93.3438 233.281 94.9612 233.281 98.196C233.281 100.093 232.348 101.555 230.513 102.613L235.303 109.767H230.264L226.781 103.795H225.661ZM225.661 100.467H226.501C228.056 100.467 228.834 99.7823 228.834 98.4137C228.834 97.294 228.087 96.7341 226.563 96.7341H225.692V100.498L225.661 100.467Z" fill="#EC1C24"/>
<path d="M246.501 109.767L245.692 106.687H240.373L239.533 109.767H234.65L240 93.2814H245.91L251.322 109.767H246.47H246.501ZM244.79 103.079L244.075 100.373C243.919 99.7822 243.701 99.0046 243.484 98.0404C243.235 97.0761 243.079 96.423 243.017 95.9875C242.955 96.3608 242.83 96.9828 242.613 97.8849C242.426 98.7558 241.96 100.498 241.306 103.048H244.79V103.079Z" fill="#EC1C24"/>
<path d="M259.378 100.156H266.47V108.989C264.541 109.642 262.426 109.984 260.124 109.984C257.605 109.984 255.645 109.238 254.246 107.776C252.846 106.314 252.162 104.23 252.162 101.493C252.162 98.7558 252.908 96.7962 254.432 95.3032C255.956 93.8413 258.072 93.0948 260.778 93.0948C261.804 93.0948 262.799 93.1882 263.701 93.3748C264.603 93.5614 265.412 93.8102 266.096 94.1213L264.697 97.605C263.515 97.014 262.208 96.734 260.809 96.734C259.502 96.734 258.507 97.1695 257.792 98.0093C257.076 98.8491 256.734 100.062 256.734 101.617C256.734 103.141 257.045 104.323 257.698 105.132C258.351 105.941 259.253 106.345 260.467 106.345C261.12 106.345 261.742 106.283 262.271 106.159V103.577H259.347V100.156H259.378Z" fill="#EC1C24"/>
<path d="M279.191 109.767H269.456V93.3438H279.191V96.8896H273.873V99.4713H278.787V103.017H273.873V106.128H279.191V109.736V109.767Z" fill="#EC1C24"/>
<path d="M165.692 62.9861H176.423V49.3002H186.936L186.998 49.238C187.745 49.1447 188.305 48.5226 188.305 47.7761V41.8974C188.305 41.1198 187.714 40.4977 186.967 40.4355C186.967 40.4355 186.967 40.4355 186.967 40.4044H176.516C176.516 40.4044 176.485 40.4044 176.454 40.4044V37.574C176.485 36.703 176.672 35.9254 177.014 35.2411C177.356 34.5568 177.792 33.9659 178.351 33.4682C178.88 32.9705 179.502 32.5662 180.187 32.2862C180.871 32.0063 181.586 31.8197 182.333 31.7264H188.678C189.487 31.7264 190.171 31.0732 190.171 30.2334V24.3236C190.171 23.5149 189.518 22.8306 188.678 22.8306H188.429H183.173H179.036H178.258H177.947C177.947 22.8306 177.761 22.8306 177.636 22.8306C175.832 22.8928 174.246 23.266 172.815 23.8881C171.229 24.6035 169.829 25.7233 168.678 27.2163C167.589 28.7404 166.843 30.4822 166.376 32.4729C165.941 34.4635 165.692 36.2987 165.692 38.0094V62.9861Z" fill="#006838"/>
<path d="M231.664 22.8305H223.39C222.644 22.8305 222.053 23.4215 222.053 24.168V37.7295H209.425V24.168C209.425 23.4215 208.834 22.8305 208.087 22.8305H199.813C199.067 22.8305 198.476 23.4215 198.476 24.168V61.6797C198.476 62.4262 199.067 63.0172 199.813 63.0172H208.087C208.834 63.0172 209.425 62.4262 209.425 61.6797V46.6253H222.053V61.6797C222.053 62.4262 222.644 63.0172 223.39 63.0172H231.664C232.411 63.0172 233.002 62.4262 233.002 61.6797V24.1369C233.002 23.3904 232.411 22.7994 231.664 22.7994V22.8305Z" fill="#006838"/>
<path d="M278.445 61.2442L266.034 23.5459C265.848 23.0172 265.35 22.6439 264.79 22.6439H252.224C251.664 22.6439 251.135 23.0172 250.949 23.5459L238.694 61.2442C238.414 62.1152 239.067 62.9861 239.969 62.9861H249.051C249.642 62.9861 250.171 62.5817 250.327 62.0218L252.1 55.4589H265.163L266.874 61.9907C267.03 62.5817 267.558 62.9861 268.149 62.9861H277.169C278.072 62.9861 278.725 62.1152 278.414 61.2442H278.445ZM254.37 46.5631C256.05 40.2489 257.107 36.0498 257.605 33.9036C258.103 31.7575 258.414 30.2333 258.569 29.3002C258.756 30.2956 259.129 31.9752 259.72 34.308C260.311 36.6408 260.778 38.5382 261.182 40.0001L262.924 46.5942H254.37V46.5631Z" fill="#006838"/>
<path d="M58.0715 165.723L77.2628 151.882C82.675 147.963 83.9502 145.63 83.9502 142.924C83.9502 140.062 81.4619 138.196 78.0716 138.196C73.6236 138.196 70.1711 140.311 66.1897 144.292L57.1695 135.179C62.8927 128.398 69.8911 124.946 78.4759 124.946C90.731 124.946 99.0358 132.317 99.0358 142.333C99.0358 149.114 96.3297 154.37 87.154 160.249L80.4666 164.541H99.5023V177.574H58.1027V165.754L58.0715 165.723Z" fill="#F05A2A"/>
<path d="M105.692 169.922L113.904 160.218C117.729 163.826 122.551 165.474 126.998 165.474C131.664 165.474 133.997 163.732 133.997 161.4C133.997 158.911 132.255 157.574 126.096 157.636L119.845 157.698V145.505H126.003C130.824 145.505 133.002 144.23 133.002 141.897C133.002 139.347 130.358 137.916 126.159 137.916C121.96 137.916 118.196 139.938 114.868 143.048L106.812 134.09C111.322 128.896 117.792 124.914 127.745 124.914C140.529 124.914 147.901 131.011 147.901 139.129C147.901 144.697 144.292 149.145 138.414 150.855C144.292 152.224 149.02 156.361 149.02 162.737C149.02 171.913 140.747 178.476 127.807 178.476C117.947 178.476 110.482 175.023 105.692 169.891V169.922Z" fill="#F05A2A"/>
<path d="M155.614 150.669H176.983V162.55H155.614V150.669Z" fill="#F05A2A"/>
<path d="M183.888 165.723L203.079 151.882C208.491 147.963 209.767 145.63 209.767 142.924C209.767 140.062 207.278 138.196 203.888 138.196C199.44 138.196 195.988 140.311 192.006 144.292L182.986 135.179C188.709 128.398 195.708 124.945 204.292 124.945C216.547 124.945 224.852 132.317 224.852 142.333C224.852 149.113 222.146 154.37 212.97 160.249L206.283 164.541H225.319V177.574H183.919V165.754L183.888 165.723Z" fill="#F05A2A"/>
<path d="M277.387 160C277.387 171.291 268.212 178.445 256.547 178.445C240.747 178.445 233.002 167.994 233.002 152.628C233.002 135.987 242.644 124.945 258.663 124.945C265.226 124.945 270.793 126.905 275.303 130.14L268.678 141.12C265.599 138.849 262.737 137.667 258.818 137.667C253.313 137.667 249.922 140.84 248.647 146.625C251.664 144.666 255.801 143.39 259.876 143.39C269.518 143.39 277.418 149.704 277.418 160.031L277.387 160ZM262.333 160.591C262.333 157.045 258.942 155.023 255.179 155.023C252.255 155.023 249.767 156.516 248.336 159.005C249.02 164.043 250.886 166.065 255.552 166.065C259.627 166.065 262.333 163.732 262.333 160.56V160.591Z" fill="#F05A2A"/>
<path d="M72.9394 208.429H64.0436L62.7372 211.851H54.5879L64.4168 186.283H72.5661L82.395 211.851H74.2457L72.9394 208.429ZM70.8865 203.11L68.4915 196.89L66.0653 203.11H70.8554H70.8865Z" fill="#BC202E"/>
<path d="M85.2255 186.283H97.4495C103.173 186.283 107.247 189.953 107.247 195.21C107.247 200.467 103.204 204.137 97.4495 204.137H92.4417V211.851H85.2255V186.283ZM96.8585 197.605C98.5692 197.605 99.7823 196.61 99.7823 195.21C99.7823 193.81 98.5692 192.815 96.8585 192.815H92.4417V197.574H96.8585V197.605Z" fill="#BC202E"/>
<path d="M124.79 211.851L119.409 204.137H117.667V211.851H110.451V186.283H122.675C128.398 186.283 132.473 189.953 132.473 195.21C132.473 199.005 130.358 201.929 127.03 203.328L133.033 211.851H124.821H124.79ZM117.667 197.605H122.084C123.795 197.605 125.008 196.61 125.008 195.21C125.008 193.81 123.795 192.815 122.084 192.815H117.667V197.574V197.605Z" fill="#BC202E"/>
<path d="M136.33 186.283H143.546V211.851H136.33V186.283Z" fill="#BC202E"/>
<path d="M167.589 205.412V211.851H148.46V186.283H155.677V205.412H167.589Z" fill="#BC202E"/>
<path d="M180.28 206.003L189.767 199.16C192.442 197.232 193.064 196.081 193.064 194.743C193.064 193.344 191.851 192.411 190.171 192.411C187.963 192.411 186.252 193.437 184.292 195.428L179.813 190.918C182.644 187.558 186.096 185.848 190.327 185.848C196.392 185.848 200.498 189.487 200.498 194.432C200.498 197.792 199.16 200.373 194.619 203.297L191.322 205.412H200.746V211.851H180.28V206.003Z" fill="#BC202E"/>
<path d="M204.448 199.067C204.448 191.322 209.425 185.848 216.516 185.848C223.608 185.848 228.585 191.322 228.585 199.067C228.585 206.812 223.608 212.317 216.516 212.317C209.425 212.317 204.448 206.843 204.448 199.067ZM221.12 199.067C221.12 195.148 219.222 192.411 216.516 192.411C213.81 192.411 211.913 195.179 211.913 199.067C211.913 202.955 213.81 205.754 216.516 205.754C219.222 205.754 221.12 202.955 221.12 199.067Z" fill="#BC202E"/>
<path d="M232.1 206.003L241.586 199.16C244.261 197.232 244.883 196.081 244.883 194.743C244.883 193.344 243.67 192.411 241.991 192.411C239.782 192.411 238.072 193.437 236.112 195.428L231.633 190.918C234.463 187.558 237.916 185.848 242.146 185.848C248.211 185.848 252.317 189.487 252.317 194.432C252.317 197.792 250.98 200.373 246.439 203.297L243.142 205.412H252.566V211.851H232.1V206.003Z" fill="#BC202E"/>
<path d="M268.771 207.31H256.454L255.863 201.866L267.123 186.283H275.988V201.338H279.067V207.278H275.988V211.82H268.771V207.278V207.31ZM268.771 201.369V193.717L263.266 201.369H268.771Z" fill="#BC202E"/>
<path d="M54.5879 237.138L57.2318 233.966C58.9425 235.303 60.8087 236.019 62.7994 236.019C64.1058 236.019 64.7901 235.583 64.7901 234.837C64.7901 234.028 64.1991 233.903 61.8663 233.375C58.196 232.535 55.3966 231.571 55.3966 228.087C55.3966 224.603 58.0405 222.55 62.0529 222.55C64.9767 222.55 67.2473 223.328 69.1136 224.821L66.7185 228.18C65.1322 227.061 63.4215 226.501 61.8974 226.501C60.7465 226.501 60.1867 226.967 60.1867 227.62C60.1867 228.491 60.7776 228.74 63.1727 229.269C67.0918 230.109 69.549 231.166 69.549 234.37C69.549 237.916 66.8118 240.031 62.6128 240.031C59.5646 240.031 56.703 239.067 54.5568 237.169L54.5879 237.138Z" fill="#F05A2A"/>
<path d="M71.7574 222.83H76.5164V239.689H71.7574V222.83Z" fill="#F05A2A"/>
<path d="M79.7512 222.83H84.5102L91.0732 231.851V222.83H95.8321V239.689H91.0732L84.5102 230.669V239.689H79.7512V222.83Z" fill="#F05A2A"/>
<path d="M106.439 229.829H114.339V236.983C112.597 238.88 110.016 239.969 107.372 239.969C102.271 239.969 98.0716 236.05 98.0716 231.229C98.0716 226.407 102.271 222.519 107.372 222.519C110.016 222.519 112.597 223.639 114.339 225.474L110.824 228.554C109.985 227.465 108.709 226.843 107.372 226.843C104.977 226.843 102.986 228.833 102.986 231.229C102.986 233.624 104.977 235.645 107.372 235.645C108.212 235.645 109.02 235.396 109.736 234.961V233.313H106.439V229.798V229.829Z" fill="#F05A2A"/>
<path d="M127.123 237.449H121.244L120.373 239.72H114.992L121.462 222.861H126.843L133.313 239.72H127.932L127.061 237.449H127.123ZM125.785 233.935L124.199 229.829L122.613 233.935H125.785Z" fill="#F05A2A"/>
<path d="M135.241 222.83H143.328C147.123 222.83 149.798 225.257 149.798 228.709C149.798 232.162 147.123 234.588 143.328 234.588H140V239.658H135.241V222.799V222.83ZM142.924 230.296C144.044 230.296 144.852 229.642 144.852 228.709C144.852 227.776 144.044 227.123 142.924 227.123H140V230.264H142.924V230.296Z" fill="#F05A2A"/>
<path d="M150.607 231.26C150.607 226.532 154.806 222.55 159.782 222.55C164.759 222.55 168.958 226.532 168.958 231.26C168.958 235.987 164.759 240 159.782 240C154.806 240 150.607 235.987 150.607 231.26ZM164.044 231.26C164.044 228.865 162.084 226.874 159.782 226.874C157.481 226.874 155.521 228.896 155.521 231.26C155.521 233.624 157.481 235.676 159.782 235.676C162.084 235.676 164.044 233.655 164.044 231.26Z" fill="#F05A2A"/>
<path d="M180.622 239.689L177.076 234.619H175.925V239.689H171.166V222.83H179.253C183.048 222.83 185.723 225.256 185.723 228.709C185.723 231.228 184.323 233.157 182.146 234.059L186.096 239.689H180.684H180.622ZM175.925 230.295H178.849C179.969 230.295 180.778 229.642 180.778 228.709C180.778 227.776 179.969 227.123 178.849 227.123H175.925V230.264V230.295Z" fill="#F05A2A"/>
<path d="M193.002 227.092V228.989H201.026V233.25H193.002V235.49H201.804V239.751H188.243V222.893H201.804V227.154H193.002V227.092Z" fill="#F05A2A"/>
<path d="M216.143 227.092V228.989H224.168V233.25H216.143V235.49H224.946V239.751H211.384V222.893H224.946V227.154H216.143V227.092Z" fill="#BC202E"/>
<path d="M238.134 231.228L244.137 239.689H238.569L235.365 235.148L232.131 239.689H226.656L232.659 231.291L226.656 222.83H232.224L235.428 227.372L238.662 222.83H244.137L238.134 231.228Z" fill="#BC202E"/>
<path d="M246.065 222.83H254.152C257.947 222.83 260.622 225.257 260.622 228.709C260.622 232.162 257.947 234.588 254.152 234.588H250.824V239.658H246.065V222.799V222.83ZM253.779 230.296C254.899 230.296 255.708 229.642 255.708 228.709C255.708 227.776 254.899 227.123 253.779 227.123H250.855V230.264H253.779V230.296Z" fill="#BC202E"/>
<path d="M261.431 231.26C261.431 226.532 265.63 222.55 270.607 222.55C275.583 222.55 279.782 226.532 279.782 231.26C279.782 235.987 275.583 240 270.607 240C265.63 240 261.431 235.987 261.431 231.26ZM274.899 231.26C274.899 228.865 272.939 226.874 270.638 226.874C268.336 226.874 266.376 228.896 266.376 231.26C266.376 233.624 268.336 235.676 270.638 235.676C272.939 235.676 274.899 233.655 274.899 231.26Z" fill="#BC202E"/>
</g>
<defs>
<clipPath id="clip0_344_1415">
<rect width="279.813" height="240" fill="white"/>
</clipPath>
</defs>
</svg>
